<svg xmlns="http://www.w3.org/2000/svg" width="72" height="72" fill="none"><path fill="#1572B6" d="M13.28 61.202 8.226 4.5h55.548l-5.06 56.693L35.966 67.5 13.28 61.202Z"/><path fill="#33A9DC" d="m36 62.68 18.383-5.096 4.324-48.447H36v53.544Z"/><path fill="#fff" d="M36 29.68h9.203l.634-7.122H36v-6.954h17.438l-.167 1.865-1.708 19.166H36V29.68Z"/><path fill="#EBEBEB" d="m36.043 47.74-.032.01-7.744-2.093-.495-5.546H20.79l.974 10.919 14.245 3.956.034-.01V47.74Z"/><path fill="#fff" d="m44.61 36.34-.836 9.313-7.756 2.092v7.236l14.256-3.951.106-1.175 1.208-13.515h-6.977Z"/><path fill="#EBEBEB" d="M36.025 15.604V22.558H19.226l-.14-1.563-.316-3.526-.167-1.865h17.422ZM36 29.68v6.954h-7.648l-.14-1.563-.314-3.526-.167-1.865H36Z"/></svg>