<svg width="24" height="18" viewBox="0 0 24 18" fill="none" xmlns="http://www.w3.org/2000/svg">
<path d="M2.87813 0C1.28906 0 0 1.28906 0 2.87813C0 2.92031 0 2.95781 0.0046875 3H0V15C0 16.6547 1.34531 18 3 18H21C22.6547 18 24 16.6547 24 15V3H23.9953C23.9953 2.95781 24 2.92031 24 2.87813C24 1.28906 22.7109 0 21.1219 0H2.87813ZM21.75 6.01406V15C21.75 15.4125 21.4125 15.75 21 15.75H3C2.5875 15.75 2.25 15.4125 2.25 15V6.01406L9.50625 11.5172C10.9781 12.6375 13.0172 12.6375 14.4938 11.5172L21.75 6.01406ZM2.25 2.87813C2.25 2.53125 2.53125 2.25 2.87813 2.25H21.1219C21.4688 2.25 21.75 2.53125 21.75 2.87813C21.75 3.075 21.6562 3.2625 21.5016 3.37969L13.1344 9.72656C12.4641 10.2328 11.5359 10.2328 10.8656 9.72656L2.49844 3.37969C2.34375 3.2625 2.25 3.075 2.25 2.87813Z" fill="white"/>
</svg>
