<svg width="24" height="22" viewBox="0 0 24 22" fill="none" xmlns="http://www.w3.org/2000/svg">
<path d="M24 1.12563C24 0.736572 23.7984 0.375634 23.4703 0.169384C23.1422 -0.0368657 22.725 -0.0556157 22.3781 0.117822L16.5234 3.00532L8.4375 0.253759C7.79531 0.0334468 7.09219 0.0756343 6.47344 0.361572L0.646875 3.10845C0.253125 3.29126 0 3.6897 0 4.12563V20.6256C0 21.01 0.196875 21.3709 0.520313 21.5772C0.84375 21.7834 1.25156 21.8069 1.60313 21.6428L7.57031 18.835L15.5719 21.5022C16.2141 21.7178 16.9078 21.6756 17.5219 21.385L23.3531 18.6428C23.7469 18.4553 24 18.0616 24 17.6256V1.12563ZM6.75 2.72407V16.7397L2.25 18.8584V4.84282L6.75 2.72407ZM9 16.9413V2.8272L15 4.86626V18.9428L9 16.9413ZM17.25 5.15688L21.75 2.93501V16.9131L17.25 19.0319V5.15688Z" fill="white"/>
</svg>
