<svg width="24" height="24" viewBox="0 0 24 24" fill="none" xmlns="http://www.w3.org/2000/svg">
<path d="M7.50576 1.17196C7.13545 0.286019 6.16983 -0.182731 5.25108 0.0657069L4.99326 0.136019C1.96514 0.961019 -0.622361 3.89539 0.132327 7.46727C1.87139 15.6704 8.32608 22.1251 16.5292 23.8641C20.1058 24.6235 23.0355 22.0313 23.8605 19.0032L23.9308 18.7454C24.1839 17.822 23.7105 16.8563 22.8292 16.4907L18.2683 14.5923C17.4948 14.2688 16.5995 14.4938 16.0651 15.1454L14.2558 17.3579C10.9605 15.722 8.30733 12.9845 6.78389 9.62352L8.85576 7.93602C9.50733 7.40633 9.72764 6.51102 9.40889 5.73289L7.50576 1.17196Z" fill="white"/>
</svg>
