<svg xmlns="http://www.w3.org/2000/svg" width="72" height="72" fill="none"><path fill="url(#a)" fill-rule="evenodd" d="M29.287 4.5c-4.944 0-8.95 3.88-8.95 8.667v6h15.49v1.666H13.452c-4.944 0-8.951 3.88-8.951 8.667v13c0 4.786 4.007 8.667 8.95 8.667h5.165v-7.334c0-4.786 4.007-8.666 8.95-8.666H44.09c4.183 0 7.574-3.284 7.574-7.334V13.167c0-4.787-4.007-8.667-8.95-8.667H29.286ZM27.22 15.167c1.712 0 3.099-1.344 3.099-3 0-1.657-1.387-3-3.099-3-1.711 0-3.098 1.343-3.098 3 0 1.656 1.387 3 3.098 3Z" clip-rule="evenodd"/><path fill="url(#b)" fill-rule="evenodd" d="M42.713 67.5c4.943 0 8.95-3.88 8.95-8.667v-6H36.173v-1.666h22.377c4.943 0 8.95-3.88 8.95-8.667v-13c0-4.787-4.007-8.667-8.95-8.667h-5.164v7.334c0 4.786-4.008 8.666-8.95 8.666H27.908c-4.182 0-7.573 3.284-7.573 7.334v14.666c0 4.787 4.007 8.667 8.95 8.667h13.427Zm2.065-10.667c-1.711 0-3.098 1.343-3.098 3s1.387 3 3.098 3c1.712 0 3.099-1.343 3.099-3s-1.388-3-3.099-3Z" clip-rule="evenodd"/><defs><linearGradient id="a" x1="28.082" x2="28.082" y1="4.5" y2="51.167" gradientUnits="userSpaceOnUse"><stop stop-color="#327EBD"/><stop offset="1" stop-color="#1565A7"/></linearGradient><linearGradient id="b" x1="43.918" x2="43.918" y1="20.833" y2="67.5" gradientUnits="userSpaceOnUse"><stop stop-color="#FFDA4B"/><stop offset="1" stop-color="#F9C600"/></linearGradient></defs></svg>