<svg xmlns="http://www.w3.org/2000/svg" width="72" height="72" fill="none"><path fill="#CD6799" d="M61.954 40.082a14.865 14.865 0 0 0-6.505 1.508c-.669-1.324-1.337-2.505-1.456-3.37-.13-1.01-.288-1.627-.13-2.833.157-1.207.865-2.925.852-3.056-.013-.131-.158-.747-1.6-.76-1.443-.014-2.689.275-2.833.655a15.84 15.84 0 0 0-.603 2.138c-.25 1.311-2.886 5.993-4.394 8.446-.485-.958-.905-1.797-.996-2.466-.132-1.01-.289-1.626-.132-2.833.158-1.206.866-2.924.853-3.055-.013-.131-.158-.748-1.6-.76-1.443-.014-2.689.275-2.833.655-.144.38-.302 1.272-.603 2.138-.302.865-3.803 8.681-4.722 10.701a60.402 60.402 0 0 1-1.167 2.426s-.013.04-.052.105c-.25.486-.394.748-.394.748v.013c-.196.354-.406.682-.511.682-.079 0-.223-.944.026-2.23.525-2.714 1.77-6.937 1.757-7.081 0-.08.236-.814-.813-1.194-1.023-.38-1.39.25-1.482.25-.091 0-.157.222-.157.222s1.141-4.747-2.177-4.747c-2.072 0-4.931 2.269-6.348 4.314-.891.486-2.793 1.522-4.826 2.636-.774.433-1.574.866-2.321 1.273-.053-.053-.105-.118-.157-.17-4.014-4.29-11.437-7.319-11.122-13.076.118-2.099.84-7.607 14.256-14.295 11.043-5.443 19.83-3.935 21.35-.59 2.178 4.773-4.707 13.639-16.117 14.924-4.354.485-6.636-1.193-7.213-1.823-.604-.656-.695-.695-.918-.564-.368.197-.132.787 0 1.128.34.892 1.744 2.466 4.118 3.24 2.098.681 7.2 1.062 13.377-1.325 6.911-2.676 12.314-10.112 10.728-16.341-1.587-6.322-12.08-8.407-22.007-4.879-5.902 2.098-12.302 5.403-16.905 9.705-5.469 5.115-6.334 9.56-5.98 11.423 1.272 6.61 10.387 10.911 14.033 14.098-.184.105-.355.197-.499.276-1.823.905-8.774 4.537-10.505 8.38-1.967 4.354.315 7.475 1.823 7.895 4.682 1.298 9.495-1.036 12.079-4.892 2.584-3.855 2.269-8.865 1.075-11.16-.013-.027-.026-.053-.052-.079.472-.275.957-.564 1.43-.84a69.68 69.68 0 0 1 2.635-1.481c-.446 1.22-.773 2.675-.93 4.773-.198 2.466.812 5.666 2.137 6.925.59.55 1.285.564 1.731.564 1.548 0 2.243-1.285 3.017-2.807.944-1.862 1.796-4.026 1.796-4.026s-1.062 5.85 1.823 5.85c1.05 0 2.112-1.365 2.584-2.06v.013s.026-.039.078-.13l.17-.276v-.026c.42-.735 1.365-2.4 2.768-5.168 1.81-3.567 3.554-8.026 3.554-8.026s.158 1.089.695 2.899c.315 1.062.97 2.23 1.495 3.357-.42.59-.682.918-.682.918l.014.013c-.341.446-.709.931-1.115 1.403-1.43 1.705-3.135 3.66-3.37 4.223-.276.67-.21 1.154.314 1.548.38.288 1.062.328 1.757.288 1.286-.091 2.19-.406 2.636-.603a8.85 8.85 0 0 0 2.27-1.193c1.403-1.036 2.255-2.518 2.176-4.472-.039-1.076-.393-2.151-.826-3.161.131-.184.25-.367.38-.55 2.217-3.24 3.935-6.794 3.935-6.794s.157 1.088.695 2.898c.262.918.8 1.915 1.272 2.885-2.085 1.692-3.37 3.66-3.83 4.944-.826 2.387-.183 3.463 1.037 3.712.55.118 1.337-.144 1.915-.394a8.72 8.72 0 0 0 2.426-1.245c1.403-1.036 2.754-2.48 2.675-4.433-.04-.892-.275-1.77-.603-2.623 1.77-.734 4.052-1.141 6.964-.8 6.242.734 7.475 4.63 7.24 6.269-.237 1.64-1.548 2.53-1.981 2.806-.433.276-.577.367-.538.564.053.289.262.276.63.223.511-.092 3.278-1.324 3.396-4.34.197-3.857-3.475-8.066-9.967-8.027ZM13.797 56.318c-2.072 2.256-4.958 3.108-6.204 2.387-1.337-.774-.813-4.105 1.732-6.492 1.547-1.456 3.54-2.806 4.865-3.633.302-.183.748-.446 1.285-.773.092-.053.145-.08.145-.08l.314-.196c.932 3.41.04 6.413-2.137 8.787Zm15.082-10.256c-.722 1.758-2.23 6.256-3.148 6.007-.787-.21-1.272-3.62-.157-6.99.564-1.692 1.757-3.712 2.452-4.499 1.128-1.259 2.374-1.678 2.676-1.167.38.669-1.377 5.548-1.823 6.65Zm12.446 5.954c-.302.158-.59.263-.722.184-.092-.053.131-.262.131-.262s1.561-1.679 2.177-2.44c.355-.445.774-.97 1.22-1.56v.17c0 2.007-1.94 3.358-2.806 3.908Zm9.6-2.19c-.223-.157-.184-.682.564-2.321.288-.643.97-1.718 2.137-2.754.131.42.223.826.21 1.206-.013 2.532-1.823 3.476-2.911 3.87Z"/></svg>